<?xml version="1.0" encoding="UTF-8" standalone="no"?>
<!DOCTYPE svg PUBLIC "-//W3C//DTD SVG 1.1//EN" "http://www.w3.org/Graphics/SVG/1.1/DTD/svg11.dtd">
<svg width="100%" height="100%" viewBox="0 0 512 512" version="1.1" xmlns="http://www.w3.org/2000/svg" xmlns:xlink="http://www.w3.org/1999/xlink" xml:space="preserve" xmlns:serif="http://www.serif.com/" style="fill-rule:evenodd;clip-rule:evenodd;stroke-linejoin:round;stroke-miterlimit:1.41421;">
    <g transform="matrix(1.00508,0,0,1,-1.29887,0.000454154)">
        <g transform="matrix(3.37514,0,0,3.37514,-351.673,1.29116)">
            <circle cx="180.044" cy="75.466" r="75.465" style="fill:rgb(1,36,125);"/>
        </g>
        <path d="M232.049,1.126C101.176,13.393 -0.866,125.133 1.327,260.255C3.457,391.514 104.624,498.804 232.048,510.871L232.048,1.126L232.049,1.126Z" style="fill:rgb(1,36,125);fill-rule:nonzero;"/>
        <path d="M499.987,329.57C506.778,306.852 510.518,282.814 510.7,257.919C510.892,231.701 507.112,206.346 499.935,182.43L365.964,182.43L453.591,94.803C442.77,81.43 430.63,69.175 417.384,58.223L329.571,146.036L329.571,10.915C307.314,4.138 283.782,0.344 259.423,0.023C232.62,-0.33 206.758,3.48 182.431,10.845L182.431,146.038L94.461,58.068C81.205,69.009 69.072,81.27 58.253,94.648L146.035,182.43L11.966,182.43C4.637,207.023 0.888,233.17 1.327,260.254C1.717,284.31 5.434,307.562 12.03,329.569L146.036,329.569L58.399,417.206C69.231,430.578 81.376,442.827 94.625,453.768L182.431,365.962L182.431,501.062C206.346,508.352 231.712,512.189 257.943,511.991C282.845,511.803 306.873,507.988 329.571,501.094L329.571,365.964L417.125,453.518C417.125,453.518 424.748,447.603 435.835,436.689C446.831,425.866 453.574,417.18 453.574,417.18L365.965,329.571L499.987,329.571L499.987,329.57Z" style="fill:white;fill-rule:nonzero;"/>
        <path d="M236.605,511.249L236.605,0.744C217.91,2.161 199.779,5.594 182.431,10.845L182.431,146.038L94.461,58.068C81.205,69.009 69.072,81.27 58.253,94.648L146.035,182.43L11.966,182.43C4.637,207.023 0.888,233.17 1.327,260.254C1.717,284.31 5.434,307.562 12.03,329.569L146.036,329.569L58.399,417.206C69.231,430.578 81.376,442.827 94.625,453.768L182.431,365.962L182.431,501.062C199.798,506.358 217.932,509.821 236.605,511.249Z" style="fill:white;fill-rule:nonzero;"/>
        <path d="M507.339,214.501L297.5,214.501L297.5,3.415C285.085,1.355 272.372,0.193 259.423,0.022C244.105,-0.18 229.094,0.984 214.502,3.389L214.502,214.5L4.629,214.5C2.219,229.363 1.074,244.652 1.328,260.254C1.534,272.914 2.669,285.348 4.652,297.498L214.5,297.498L214.5,508.581C228.635,510.931 243.15,512.103 257.941,511.991C271.407,511.889 284.615,510.718 297.499,508.581L297.499,297.5L507.352,297.5C509.454,284.605 510.602,271.388 510.7,257.92C510.807,243.138 509.652,228.631 507.339,214.501Z" style="fill:rgb(207,20,43);fill-rule:nonzero;"/>
        <path d="M256.001,0C241.868,0.001 228.006,1.164 214.501,3.389L214.501,214.5L4.629,214.5C2.219,229.363 1.074,244.652 1.328,260.254C1.534,272.914 2.669,285.348 4.652,297.498L214.5,297.498L214.5,508.581C228.016,510.828 241.88,511.998 255.999,511.998L256.001,0Z" style="fill:rgb(207,20,43);fill-rule:nonzero;"/>
    </g>
</svg>
