<svg
  width="170px"
  height="95px"
  viewBox="0 0 170 95"
  version="1.1"
  xmlns="http://www.w3.org/2000/svg"
  xmlns:xlink="http://www.w3.org/1999/xlink"
>
  <defs>
    <polygon
      id="path-1"
      points="0.000552845528 0.823878049 169.733805 0.823878049 169.733805 95.3658537 0.000552845528 95.3658537"
    />
  </defs>
  <g id="Page-1" stroke="none" stroke-width="1" fill="none" fill-rule="evenodd">
    <g id="Desktop-HD---Page-27" transform="translate(-1275.000000, -308.000000)">
      <g id="Group-2" transform="translate(1275.000000, 307.000000)">
        <g id="Group-18-Copy" transform="translate(0.000000, -0.000000)">
          <path
            id="Fill-1"
            d="M4.83753659,91.0872439 L4.83753659,86.2498455 C4.83753659,42.1203333 40.7393252,6.21992683 84.8674553,6.21992683 C128.995585,6.21992683 164.897374,42.1203333 164.897374,86.2498455 L164.897374,91.0872439 L4.83753659,91.0872439 Z"
            fill="#FFFFFF"
          />
          <g id="Group-5" transform="translate(0.000000, 0.558236)">
            <mask id="mask-2" fill="white">
              <use xlink:href="#path-1" />
            </mask>
            <g id="Clip-4" />
            <path
              id="Fill-3"
              d="M84.8678699,0.823878049 C38.0722602,0.823878049 0.000552845528,38.8955854 0.000552845528,85.6911951 L0.000552845528,95.3659919 L9.67534959,95.3659919 L160.059008,95.3659919 L169.733805,95.3659919 L169.733805,85.6911951 C169.733805,38.8955854 131.662098,0.823878049 84.8678699,0.823878049 M84.8678699,10.4986748 C126.394862,10.4986748 160.059008,44.1628211 160.059008,85.6911951 L9.67534959,85.6911951 C9.67534959,44.1628211 43.3394959,10.4986748 84.8678699,10.4986748"
              fill="#AFD7B8"
              mask="url(#mask-2)"
            />
          </g>
          <path
            id="Fill-6"
            d="M84.8678699,21.628561 L84.8678699,11.0553902 C64.1029919,11.0553902 45.3034797,19.4710813 31.695187,33.079374 L39.1710407,40.5566098 C50.8651057,28.8611626 67.0220163,21.628561 84.8678699,21.628561"
            fill="#FFC57F"
          />
          <path
            id="Fill-8"
            d="M130.562626,40.5563333 L138.03848,33.0790976 C124.430187,19.4708049 105.632057,11.0551138 84.8671789,11.0551138 L84.8671789,21.6282846 C102.713033,21.6282846 118.868561,28.8622683 130.562626,40.5563333"
            fill="#FFF891"
          />
          <path
            id="Fill-10"
            d="M138.038756,33.0796504 L130.562902,40.5568862 C142.256967,52.2509512 149.489569,68.4064797 149.489569,86.2509512 L160.064122,86.2509512 C160.064122,65.4860732 151.647049,46.6879431 138.038756,33.0796504"
            fill="#AFD7B8"
          />
          <path
            id="Fill-12"
            d="M31.6956016,33.0796504 C18.0873089,46.6879431 9.67023577,65.4860732 9.67023577,86.2509512 L20.2447886,86.2509512 C20.2447886,68.4064797 27.4773902,52.2509512 39.1714553,40.5568862 L31.6956016,33.0796504 Z"
            fill="#FF7D7A"
          />
          <path
            id="Fill-14"
            d="M84.8678699,8.29268293 C41.8813659,8.29268293 6.91112195,43.2643089 6.91112195,86.2494309 L6.91112195,89.0136585 L9.67534959,89.0136585 L160.059008,89.0136585 L162.823236,89.0136585 L162.823236,86.2494309 C162.823236,43.2643089 127.852992,8.29268293 84.8678699,8.29268293 M84.8678699,11.0569106 C126.394862,11.0569106 160.059008,44.7210569 160.059008,86.2494309 L9.67534959,86.2494309 C9.67534959,44.7210569 43.3394959,11.0569106 84.8678699,11.0569106"
            fill="#FFFFFF"
          />
          <path
            id="gauge-hand"
            d="M85,91.0872439 L85,33.0796504"
            stroke="#003BA3"
            stroke-width="6"
            stroke-linecap="round"/>
          <path
            class="gauge-hand"
            d="M85,91.0872439 L85,33.0796504"
            stroke="rgb(0, 54, 169)"
            stroke-width="6"
            stroke-linecap="round"
          />
        </g>
      </g>
    </g>
  </g>
</svg>
